<?xml version="1.0" encoding="iso-8859-1"?>
<!-- Uploaded to: SVG Repo, www.svgrepo.com, Generator: SVG Repo Mixer Tools -->
<svg height="800px" width="800px" version="1.1" id="Layer_1" xmlns="http://www.w3.org/2000/svg" xmlns:xlink="http://www.w3.org/1999/xlink" 
	 viewBox="0 0 512 512" xml:space="preserve">
<polygon style="fill:#FFCD02;" points="272.495,132.606 112.452,132.606 112.452,93.773 260.391,93.773 "/>
<path style="fill:#FFA800;" d="M156.157,132.606v67.701c-4.438,2.36-8.674,5.144-12.638,8.311l-31.066,22.453v-98.465H156.157z"/>
<path style="fill:#6D6E71;" d="M310.823,255.611l-198.372-5.416v-19.124l31.066-22.453c3.964-3.167,8.2-5.951,12.638-8.311v-67.701
	h116.338L310.823,255.611z"/>
<path style="fill:#ECF0F1;" d="M384.233,347.943v43.09L91.794,305.822l-34.728-34.728l55.385-40.023l31.066-22.453
	c3.964-3.167,8.2-5.951,12.638-8.311c11.771-6.274,25.005-9.623,38.5-9.623c18.589,0,36.654,6.355,51.139,17.934l65.028,46.993
	l41.577,30.048C372.391,300.103,384.233,323.272,384.233,347.943z"/>
<path style="fill:#6D6E71;" d="M78.712,380.402c0-20.334-16.058-36.927-36.18-37.784l118.113-84.283
	c-2.441,5.003-3.813,10.631-3.813,16.572c0,20.889,16.935,37.824,37.824,37.824s37.824-16.935,37.824-37.824
	c0-5.87-1.331-11.418-3.722-16.38l116.489,84.182c-19.406,1.614-34.647,17.873-34.647,37.693c0,20.889,16.935,37.824,37.824,37.824
	H41.16C61.928,418.075,78.712,401.2,78.712,380.402z"/>
<g>
	<path style="fill:#FFA800;" d="M78.712,380.402c0,20.798-16.784,37.673-37.552,37.824H41.1c-0.071,0-0.141-0.01-0.212-0.01
		c-28.737-0.696-41.728-41.637-19.628-60.418l19.628-14.01l1.644-1.17C62.654,343.475,78.712,360.067,78.712,380.402z"/>
	<path style="fill:#FFA800;" d="M352.733,418.226h-4.307c-20.889,0-37.824-16.935-37.824-37.824
		c0-19.82,15.241-36.079,34.647-37.693l3.177,2.3l24.672,17.833C395.389,381.783,381.984,418.226,352.733,418.226z"/>
	<path style="fill:#FFA800;" d="M232.481,274.907c0,20.889-16.935,37.824-37.824,37.824s-37.824-16.935-37.824-37.824
		c0-5.941,1.372-11.569,3.813-16.572l2.007-1.432l11.64-8.301c11.741-9.976,28.989-9.976,40.729,0l10.308,7.454l3.429,2.471
		C231.15,263.489,232.481,269.036,232.481,274.907z"/>
</g>
<path style="fill:#FFCD02;" d="M462.408,336.525h0.168l39.337,81.701h-39.506c-22.561,0-37.824-18.289-37.824-40.85l0,0
	C424.583,354.814,439.847,336.525,462.408,336.525z"/>
<g>
	<path style="fill:#231F20;" d="M136.458,304.198c-2.653,0-5.255,1.078-7.131,2.955c-1.876,1.886-2.955,4.477-2.955,7.131
		c0,2.663,1.079,5.255,2.955,7.13c1.876,1.886,4.478,2.956,7.131,2.956c2.653,0,5.255-1.07,7.131-2.956
		c1.876-1.875,2.955-4.468,2.955-7.13c0-2.654-1.079-5.245-2.955-7.131C141.713,305.276,139.109,304.198,136.458,304.198z"/>
	<path style="fill:#231F20;" d="M118.504,360.733h-1.009c-5.571,0-10.087,4.517-10.087,10.087c0,5.57,4.516,10.087,10.087,10.087
		h1.009c5.571,0,10.087-4.517,10.087-10.087C128.59,365.25,124.074,360.733,118.504,360.733z"/>
	<path style="fill:#231F20;" d="M275.973,330.978c-2.653,0-5.245,1.078-7.131,2.955c-1.876,1.876-2.945,4.478-2.945,7.131
		s1.069,5.255,2.945,7.13c1.886,1.876,4.478,2.956,7.131,2.956c2.663,0,5.255-1.079,7.141-2.956c1.876-1.875,2.955-4.477,2.955-7.13
		s-1.079-5.255-2.955-7.131C281.228,332.056,278.637,330.978,275.973,330.978z"/>
	<path style="fill:#231F20;" d="M511.001,413.851l-39.337-81.701c-1.681-3.492-5.214-5.711-9.088-5.711h-0.168
		c-24.046,0-42.879,16.976-47.043,40.85H394.32v-19.346c0-27.827-13.462-54.167-36.012-70.458l-38.853-28.079L270.02,90.772
		c-1.313-4.215-5.215-7.085-9.63-7.085H112.452c-5.571,0-10.087,4.517-10.087,10.087v132.139l-51.206,37.004
		c-2.396,1.732-3.911,4.426-4.147,7.371c-0.235,2.946,0.832,5.847,2.922,7.937l27.264,27.264c0,0-62.254,44.437-62.47,44.621
		C1.07,361.717-3.587,380.997,2.863,399.224c6.182,17.471,20.596,28.599,37.637,29.071c0.2,0.011,0.399,0.017,0.599,0.017
		c0.011,0,0.036,0,0.061,0h0.074h311.499c17.607,0,32.907-10.678,38.98-27.203c0.722-1.966,2.606-13.647,2.606-13.647h21.046
		c4.164,23.875,22.996,40.85,47.043,40.85h39.506c3.469,0,6.694-1.783,8.54-4.72C512.3,420.655,512.506,416.976,511.001,413.851z
		 M265.072,142.693l27.112,87.004l-40.287-29.115c-16.216-12.889-36.532-19.984-57.24-19.984c-9.645,0-19.257,1.548-28.414,4.52
		v-42.426h98.829V142.693z M122.538,103.859H252.97l5.816,18.66H122.538V103.859z M122.538,142.693h23.532v51.792
		c-0.512,0.318-23.532,16.851-23.532,16.851V142.693z M41.218,408.136c-0.039-0.001-0.079-0.002-0.117-0.003
		c-10.183-0.263-16.604-8.247-19.22-15.636c-2.728-7.711-2.865-19.289,5.618-26.76l17.812-12.712
		c13.305,2.109,23.315,13.566,23.315,27.378C68.626,395.541,56.342,407.954,41.218,408.136z M304.827,360.733H154.311
		c-5.571,0-10.087,4.517-10.087,10.087c0,5.57,4.516,10.087,10.087,10.087h146.214c0.106,10.136,3.366,19.529,8.856,27.234H79.898
		c5.599-7.841,8.899-17.424,8.899-27.738c0-5.984-1.111-11.702-3.104-16.986l31.522-22.779c4.516-3.263,5.53-9.568,2.267-14.084
		c-3.262-4.514-9.569-5.529-14.083-2.267l-30.658,22.154c-2.895-2.887-6.161-5.404-9.725-7.476l82.042-58.543
		c2.743,23.831,23.042,42.398,47.596,42.398c10.476,0,20.171-3.387,28.065-9.113l21.984,15.886c1.786,1.29,3.852,1.912,5.9,1.912
		c3.128,0,6.211-1.45,8.184-4.18c3.262-4.516,2.247-10.821-2.268-14.084l-20.248-14.632c3.089-5.403,5.165-11.459,5.946-17.911
		l81.365,58.799C315.385,344.526,308.829,351.962,304.827,360.733z M166.919,274.907c0-3.468,0.631-6.813,1.858-9.984
		c0,0,11.829-8.451,12.046-8.636c8.016-6.81,19.651-6.81,27.667,0c0.201,0.17,12.105,8.788,12.105,8.788
		c1.188,3.123,1.799,6.418,1.799,9.831c0,15.295-12.443,27.738-27.738,27.738S166.919,290.202,166.919,274.907z M372.779,394.152
		c-2.485,6.762-9.057,13.988-20.046,13.988h-4.307c-15.295,0-27.738-12.444-27.738-27.738c0-13.14,9.402-24.441,21.958-27.126
		l24.195,17.488C374.941,377.854,375.235,387.468,372.779,394.152z M374.147,351.153L221.23,240.643
		c-15.456-12.873-37.656-12.88-53.12-0.022l-74.264,52.99l-21.276-21.276c0,0,84.433-61.054,88.33-63.126
		c10.357-5.52,22.029-8.437,33.756-8.437c16.23,0,32.155,5.585,44.841,15.725c0.127,0.103,0.258,0.201,0.39,0.298l106.605,77.042
		c17.316,12.511,27.654,32.739,27.654,54.109L374.147,351.153L374.147,351.153z M462.408,408.14
		c-16.073,0-27.738-12.938-27.738-30.764c0-15.569,8.899-27.409,21.859-30.158l29.333,60.922H462.408z"/>
</g>
</svg>