<?xml version="1.0" encoding="iso-8859-1"?>
<!-- Uploaded to: SVG Repo, www.svgrepo.com, Generator: SVG Repo Mixer Tools -->
<svg version="1.1" id="Layer_1" xmlns="http://www.w3.org/2000/svg" xmlns:xlink="http://www.w3.org/1999/xlink" 
	 viewBox="0 0 512 512" xml:space="preserve">
<polygon style="fill:#6D6E71;" points="131.583,148.841 238.02,255.278 285.605,214.722 219.725,148.841 "/>
<polygon style="fill:#FFA800;" points="436.295,277.81 436.295,360.729 324.543,360.729 324.543,188.403 370.681,188.403 
	370.681,277.81 "/>
<rect x="407.098" y="317.463" style="fill:#6D6E71;" width="43.26" height="43.26"/>
<rect x="10.815" y="92.868" style="fill:#FFCD02;" width="392.498" height="54.075"/>
<g>
	<rect x="403.313" y="98.276" style="fill:#6D6E71;" width="86.52" height="43.26"/>
	<rect x="10.815" y="295.833" style="fill:#6D6E71;" width="313.721" height="64.89"/>
</g>
<rect x="238.016" y="214.721" style="fill:#FFCD02;" width="86.52" height="81.112"/>
<rect x="10.815" y="241.758" style="fill:#FFA800;" width="156.817" height="54.075"/>
<g>
	<circle style="fill:#ECF0F1;" cx="76.159" cy="375.864" r="43.26"/>
	<circle style="fill:#ECF0F1;" cx="162.679" cy="375.864" r="43.26"/>
	<circle style="fill:#ECF0F1;" cx="363.838" cy="375.864" r="43.26"/>
</g>
<polygon style="fill:#6D6E71;" points="436.295,273.127 436.295,277.81 370.681,277.81 370.681,188.403 410.339,188.403 "/>
<g>
	<path style="fill:#231F20;" d="M486.134,181.511c-2.336,0-4.236-1.9-4.236-4.235v-24.92h7.931c5.973,0,10.815-4.843,10.815-10.815
		v-43.26c0-5.972-4.842-10.815-10.815-10.815h-77.164c-1.871-3.229-5.356-5.407-9.356-5.407H10.815C4.842,82.059,0,86.902,0,92.874
		v101.301c0,5.972,4.842,10.815,10.815,10.815s10.815-4.843,10.815-10.815v-36.411h103.579L227.205,259.76v25.261h-48.757v-43.26
		c0-5.972-4.842-10.815-10.815-10.815H10.815C4.842,230.945,0,235.788,0,241.76v118.965c0,5.972,4.842,10.815,10.815,10.815h11.454
		c-0.114,1.429-0.188,2.868-0.188,4.326c0,29.817,24.258,54.075,54.075,54.075c17.671,0,33.386-8.52,43.26-21.668
		c9.874,13.147,25.589,21.668,43.26,21.668c1.884,0,3.745-0.098,5.581-0.288h65.798c5.973,0,10.815-4.843,10.815-10.815
		s-4.842-10.815-10.815-10.815h-27.936c6.675-8.994,10.632-20.121,10.632-32.157c0-1.458-0.075-2.897-0.188-4.326h93.386
		c-0.114,1.429-0.188,2.868-0.188,4.326c0,29.817,24.258,54.075,54.075,54.075s54.075-24.258,54.075-54.075
		c0-1.457-0.075-2.895-0.188-4.323l32.633-0.003c5.973,0,10.815-4.843,10.815-10.815v-43.26c0-5.972-4.842-10.815-10.815-10.815
		h-3.245v-33.523c0-1.074-0.16-2.141-0.474-3.169l-25.956-84.724c-1.393-4.544-5.588-7.647-10.341-7.647h-85.795
		c-5.973,0-10.815,4.843-10.815,10.815v15.505h-23.643l-46.144-46.144H403.31c4,0,7.485-2.178,9.356-5.407h47.602v24.92
		c0,14.263,11.603,25.865,25.866,25.865c2.336,0,4.236,1.9,4.236,4.236v9.598c0,2.336-1.9,4.236-4.236,4.236h-15.051
		c-5.973,0-10.815,4.843-10.815,10.815s4.842,10.815,10.815,10.815h15.05c14.263,0,25.866-11.603,25.866-25.866v-9.598
		C512,193.115,500.397,181.511,486.134,181.511z M21.63,103.689h370.864v32.445H21.63V103.689z M21.63,252.575h135.187v32.445H21.63
		V252.575z M76.156,408.311c-17.89,0-32.445-14.555-32.445-32.445c0-17.89,14.555-32.445,32.445-32.445s32.445,14.555,32.445,32.445
		C108.601,393.756,94.045,408.311,76.156,408.311z M130.231,375.866c0-17.89,14.555-32.445,32.445-32.445
		s32.445,14.555,32.445,32.445c0,17.89-14.555,32.445-32.445,32.445S130.231,393.757,130.231,375.866z M162.676,321.791
		c-17.671,0-33.386,8.52-43.26,21.668c-9.874-13.147-25.589-21.668-43.26-21.668c-20.417,0-38.222,11.376-47.423,28.119H21.63
		v-43.26h292.095v43.26H210.098C200.897,333.167,183.091,321.791,162.676,321.791z M363.835,408.311
		c-17.89,0-32.445-14.555-32.445-32.445c0-17.89,14.555-32.445,32.445-32.445c17.89,0,32.445,14.555,32.445,32.445
		C396.28,393.756,381.724,408.311,363.835,408.311z M439.54,328.28v21.63h-21.63v-21.63H439.54z M423.105,266.995h-41.61v-67.778
		h20.846L423.105,266.995z M359.866,199.218v78.593c0,5.972,4.842,10.815,10.815,10.815h54.8v18.025h-18.385
		c-5.973,0-10.815,4.843-10.815,10.815v15.17c-9.045-6.805-20.281-10.844-32.445-10.844c-10.444,0-20.2,2.985-28.476,8.133V199.218
		H359.866z M313.724,285.02h-64.89v-59.482h64.89V285.02z M259.496,203.908H238.02c-5.973,0-10.815,4.843-10.815,10.815v14.446
		L155.8,157.764h57.552L259.496,203.908z M414.124,109.096h64.89v21.63h-64.89V109.096z"/>
	<path style="fill:#231F20;" d="M274.881,408.311h-1.893c-5.973,0-10.815,4.843-10.815,10.815c0,5.972,4.842,10.815,10.815,10.815
		h1.893c5.973,0,10.815-4.843,10.815-10.815C285.696,413.154,280.853,408.311,274.881,408.311z"/>
</g>
</svg>