<?xml version="1.0" encoding="iso-8859-1"?>
<!-- Uploaded to: SVG Repo, www.svgrepo.com, Generator: SVG Repo Mixer Tools -->
<svg version="1.1" id="Layer_1" xmlns="http://www.w3.org/2000/svg" xmlns:xlink="http://www.w3.org/1999/xlink" 
	 viewBox="0 0 512 512" xml:space="preserve">
<rect x="23.983" y="66.291" style="fill:#FFCD02;" width="64.674" height="86.232"/>
<rect x="190.518" y="87.848" style="fill:#FFA800;" width="297.499" height="43.116"/>
<rect x="190.518" y="130.964" style="fill:#FFCD02;" width="70.063" height="43.116"/>
<path style="fill:#FFA800;" d="M206.363,501.221c-40.744,0-81.489,0-122.233,0c6.791-14.372,13.581-28.744,20.372-43.116
	c27.163,0,54.326,0,81.489,0C192.781,472.477,199.572,486.849,206.363,501.221z"/>
<path style="fill:#231F20;" d="M488.017,77.069H385.162L148.564,0.523l-0.001,0.002C147.517,0.188,146.405,0,145.246,0
	c-2.939,0-5.601,1.179-7.545,3.087l-0.003-0.003L84.253,55.512H23.983c-5.953,0-10.779,4.826-10.779,10.779v86.232
	c0,5.953,4.826,10.779,10.779,10.779h64.674c5.953,0,10.779-4.826,10.779-10.779v-32.337h35.032v327.141h-29.965
	c-4.169,0-7.965,2.404-9.746,6.174l-20.372,43.116c-1.578,3.339-1.337,7.253,0.64,10.374c1.976,3.119,5.412,5.01,9.106,5.01h122.233
	c3.693,0,7.129-1.891,9.106-5.01c1.976-3.12,2.218-7.034,0.64-10.374L195.737,453.5c-1.781-3.769-5.576-6.174-9.746-6.174h-29.965
	V120.185h23.714v53.895c0,5.953,4.826,10.779,10.779,10.779h70.063c5.953,0,10.779-4.826,10.779-10.779v-32.337h142.282v171.924
	c0,5.953,4.826,10.779,10.779,10.779h15.091c5.953,0,10.779-4.826,10.779-10.779s-4.826-10.779-10.779-10.779H435.2V141.743h52.817
	c5.953,0,10.779-4.826,10.779-10.779V87.848C498.796,81.895,493.97,77.069,488.017,77.069z M189.348,490.442h-88.204l10.186-21.558
	h67.832L189.348,490.442z M77.878,141.743H34.762V77.069h43.116V141.743z M99.436,98.627V70.817l35.032-34.364v62.175H99.436z
	 M156.025,98.627V25.596l159.102,51.474H190.518c-5.953,0-10.779,4.826-10.779,10.779v10.779H156.025z M249.802,163.301h-48.505
	v-21.558h48.505V163.301z M477.238,120.185H201.297V98.627h275.941V120.185z"/>
</svg>