<?xml version="1.0" encoding="iso-8859-1"?>
<!-- Uploaded to: SVG Repo, www.svgrepo.com, Generator: SVG Repo Mixer Tools -->
<svg version="1.1" id="Layer_1" xmlns="http://www.w3.org/2000/svg" xmlns:xlink="http://www.w3.org/1999/xlink" 
	 viewBox="0 0 512 512" xml:space="preserve">
<polygon style="fill:#FFCD02;" points="487.619,270.217 487.619,394.289 352.169,394.289 352.169,182.987 400.389,182.987 
	400.389,270.217 "/>
<rect x="422.874" y="350.945" style="fill:#6D6E71;" width="78.29" height="43.344"/>
<rect x="10.836" y="150.479" style="fill:#ECF0F1;" width="341.333" height="200.466"/>
<rect x="10.836" y="350.945" style="fill:#6D6E71;" width="341.333" height="43.344"/>
<g>
	<circle style="fill:#ECF0F1;" cx="93.189" cy="381.827" r="40.635"/>
	<circle style="fill:#ECF0F1;" cx="174.459" cy="381.827" r="40.635"/>
	<circle style="fill:#ECF0F1;" cx="392.804" cy="381.827" r="40.635"/>
</g>
<polygon style="fill:#6D6E71;" points="487.619,270.217 400.389,270.217 400.389,182.987 443.192,182.987 "/>
<g>
	<path style="fill:#231F20;" d="M402.557,317.359h10.023c5.985,0,10.836-4.851,10.836-10.836c0-5.985-4.851-10.836-10.836-10.836
		h-10.023c-5.985,0-10.836,4.851-10.836,10.836C391.721,312.507,396.572,317.359,402.557,317.359z"/>
	<path style="fill:#231F20;" d="M112.152,212.791h178.974c5.985,0,10.836-4.851,10.836-10.836c0-5.985-4.851-10.836-10.836-10.836
		H112.152c-5.985,0-10.836,4.851-10.836,10.836C101.316,207.94,106.169,212.791,112.152,212.791z"/>
	<path style="fill:#231F20;" d="M71.878,212.791h0.316c5.985,0,10.836-4.851,10.836-10.836c0-5.985-4.851-10.836-10.836-10.836
		h-0.316c-5.985,0-10.836,4.851-10.836,10.836C61.042,207.94,65.895,212.791,71.878,212.791z"/>
	<path style="fill:#231F20;" d="M71.878,261.553h219.248c5.985,0,10.836-4.851,10.836-10.836c0-5.985-4.851-10.836-10.836-10.836
		H71.878c-5.985,0-10.836,4.851-10.836,10.836C61.042,256.702,65.895,261.553,71.878,261.553z"/>
	<path style="fill:#231F20;" d="M291.127,288.643h-43.164c-5.985,0-10.836,4.851-10.836,10.836c0,5.985,4.851,10.836,10.836,10.836
		h43.164c5.985,0,10.836-4.851,10.836-10.836C301.963,293.495,297.111,288.643,291.127,288.643z"/>
	<path style="fill:#231F20;" d="M211.392,288.643h-0.632c-5.985,0-10.836,4.851-10.836,10.836c0,5.985,4.851,10.836,10.836,10.836
		h0.632c5.985,0,10.836-4.851,10.836-10.836C222.227,293.495,217.376,288.643,211.392,288.643z"/>
	<path style="fill:#231F20;" d="M71.878,310.315h102.039c5.985,0,10.836-4.851,10.836-10.836c0-5.985-4.851-10.836-10.836-10.836
		H71.878c-5.985,0-10.836,4.851-10.836,10.836C61.042,305.464,65.895,310.315,71.878,310.315z"/>
	<path style="fill:#231F20;" d="M501.164,340.114h-2.709v-69.897l-0.018-0.018c-0.003-1.676-0.376-3.356-1.162-4.899l-44.427-87.23
		c-1.85-3.631-5.579-5.918-9.656-5.918h-80.186v-64.47c0-2.874-1.142-5.63-3.174-7.662l-18.15-18.15
		c-4.231-4.231-11.093-4.231-15.325,0c-4.231,4.231-4.231,11.093,0,15.325l14.977,14.975v27.478H10.836
		C4.851,139.649,0,144.5,0,150.485v243.81c0,5.985,4.851,10.836,10.836,10.836h36.48c8.517,16.701,25.875,28.174,45.873,28.174
		c16.505,0,31.21-7.818,40.635-19.935c9.425,12.117,24.13,19.935,40.635,19.935c19.998,0,37.356-11.472,45.873-28.174H346.93
		c8.517,16.701,25.875,28.174,45.873,28.174c19.998,0,37.356-11.472,45.873-28.174h62.488c5.985,0,10.836-4.851,10.836-10.836
		V350.95C512,344.965,507.149,340.114,501.164,340.114z M469.94,259.381h-58.715v-65.558h25.325L469.94,259.381z M389.553,193.823
		v76.394c0,5.985,4.851,10.836,10.836,10.836h76.394v59.062h-53.886c-8.47-6.127-18.863-9.752-30.093-9.752
		c-11.1,0-21.383,3.544-29.799,9.543V193.823H389.553z M490.328,383.458h-46.094c0.017-0.541,0.041-1.08,0.041-1.625
		c0-7.107-1.449-13.882-4.066-20.047h50.119V383.458z M21.672,161.32h319.661v178.794H204.552
		c-8.47-6.127-18.863-9.752-30.093-9.752c-16.505,0-31.21,7.818-40.635,19.935c-9.425-12.117-24.13-19.935-40.635-19.935
		c-11.229,0-21.622,3.626-30.093,9.752H21.672V161.32z M21.672,383.458v-21.672h24.112c-2.617,6.165-4.066,12.939-4.066,20.047
		c0,0.545,0.024,1.085,0.041,1.625H21.672z M93.189,411.632c-16.432,0-29.799-13.367-29.799-29.799s13.367-29.799,29.799-29.799
		s29.799,13.367,29.799,29.799S109.621,411.632,93.189,411.632z M174.459,411.632c-16.432,0-29.799-13.367-29.799-29.799
		s13.367-29.799,29.799-29.799s29.799,13.367,29.799,29.799S190.891,411.632,174.459,411.632z M221.865,361.786h119.469v21.672
		H225.889c0.017-0.541,0.041-1.08,0.041-1.625C225.93,374.725,224.481,367.951,221.865,361.786z M392.804,411.632
		c-16.432,0-29.799-13.367-29.799-29.799s13.367-29.799,29.799-29.799c16.432,0,29.799,13.367,29.799,29.799
		S409.236,411.632,392.804,411.632z"/>
</g>
</svg>