<?xml version="1.0" encoding="iso-8859-1"?>
<!-- Uploaded to: SVG Repo, www.svgrepo.com, Generator: SVG Repo Mixer Tools -->
<svg version="1.1" id="Layer_1" xmlns="http://www.w3.org/2000/svg" xmlns:xlink="http://www.w3.org/1999/xlink" 
	 viewBox="0 0 512 512" xml:space="preserve">
<rect x="10.7" y="284.644" style="fill:#FFA800;" width="303.883" height="42.8"/>
<polygon style="fill:#FFCD02;" points="27.999,208.675 134.326,208.675 187.826,284.646 27.999,284.646 "/>
<polygon style="fill:#6D6E71;" points="240.217,158.741 187.826,158.741 187.826,284.646 270.891,284.646 "/>
<circle style="fill:#ECF0F1;" cx="145.34" cy="310.463" r="64.201"/>
<path style="fill:#6D6E71;" d="M145.344,331.86c-11.8,0-21.4-9.6-21.4-21.4s9.6-21.4,21.4-21.4s21.4,9.6,21.4,21.4
	S157.144,331.86,145.344,331.86z"/>
<circle style="fill:#ECF0F1;" cx="346.501" cy="310.463" r="64.201"/>
<path style="fill:#FFA800;" d="M483.11,284.646c2.14,0,4.28,0,6.42,0c-4.28,27.693-2.576,57.927,11.77,85.601
	c-6.064,0-12.126,0-18.19,0c-21.474,0.094-37.736-16.592-37.094-37.094c0-3.804,0-7.609,0-11.413
	C445.374,301.233,461.639,284.553,483.11,284.646z"/>
<g>
	<path style="fill:#231F20;" d="M145.344,278.36c-17.7,0-32.1,14.4-32.1,32.1s14.4,32.1,32.1,32.1s32.1-14.4,32.1-32.1
		S163.044,278.36,145.344,278.36z M145.344,321.16c-5.9,0-10.7-4.8-10.7-10.7s4.8-10.7,10.7-10.7s10.7,4.8,10.7,10.7
		S151.244,321.16,145.344,321.16z"/>
	<path style="fill:#231F20;" d="M510.799,365.323c-11.711-22.591-15.31-49.185-10.695-79.042c0.476-3.087-0.418-6.227-2.451-8.599
		c-2.032-2.371-5-3.735-8.124-3.735h-6.401c-0.067,0-0.134,0-0.201,0c-13.313,0-25.581,5.074-34.565,14.303
		c-7.571,7.778-12.048,17.747-12.905,28.498h-14.335c0.173-2.075,0.284-4.168,0.284-6.286c0-41.3-33.6-74.901-74.901-74.901
		c-28.047,0-52.53,15.506-65.363,38.387h-1.846l-25.46-104.505h2.787c5.909,0,10.7-4.792,10.7-10.7c0-5.909-4.792-10.7-10.7-10.7
		h-68.798c-5.909,0-10.7,4.792-10.7,10.7v83.917c-2.605-1.226-5.294-2.298-8.052-3.223l-26-36.921
		c-2.004-2.846-5.268-4.539-8.748-4.539h-0.396v-21.4c0-3.176-1.41-6.187-3.85-8.221l-21.4-17.834
		c-4.539-3.78-11.284-3.17-15.071,1.37c-3.782,4.54-3.169,11.288,1.37,15.071l17.55,14.625v16.388H27.998
		c-5.909,0-10.7,4.792-10.7,10.7v65.271H10.7c-5.909,0-10.7,4.792-10.7,10.7v42.8c0,5.909,4.792,10.7,10.7,10.7H75.77
		c11.035,27.631,38.053,47.214,69.574,47.214s58.538-19.583,69.574-47.214h62.014c11.035,27.631,38.053,47.214,69.574,47.214
		s58.538-19.583,69.574-47.214h19.378c0.857,10.749,5.335,20.72,12.908,28.499c8.984,9.229,21.249,14.303,34.516,14.302
		c0.076,0,0.153,0,0.229,0h18.19c3.736,0,7.201-1.948,9.143-5.141C512.383,372.614,512.519,368.64,510.799,365.323z M346.506,256.96
		c29.5,0,53.501,24,53.501,53.501c0,2.128-0.139,4.222-0.382,6.286h-21.651c0.413-2.06,0.632-4.164,0.632-6.286
		c0-17.7-14.4-32.1-32.1-32.1c-5.909,0-10.7,4.792-10.7,10.7s4.792,10.7,10.7,10.7c5.9,0,10.7,4.8,10.7,10.7
		c0,2.794-1.031,4.893-2.051,6.286h-61.768c-0.243-2.064-0.382-4.158-0.382-6.286C293.005,280.96,317.006,256.96,346.506,256.96z
		 M231.811,169.441l25.461,104.505h-46.566c-3.327-5.931-7.428-11.369-12.18-16.167v-88.338L231.811,169.441L231.811,169.441z
		 M38.699,219.375h90.076l11.529,16.372c-25.921,1.732-48.265,16.701-60.323,38.198H38.699V219.375z M21.4,316.746v-21.4h50.576
		c-1.005,4.882-1.533,9.938-1.533,15.114c0,2.119,0.11,4.212,0.284,6.286H21.4z M145.344,363.961c-29.5,0-53.501-24-53.501-53.501
		c0-29.5,24-53.501,53.501-53.501s53.501,24,53.501,53.501C198.844,339.96,174.844,363.961,145.344,363.961z M218.711,295.346
		h54.427c-1.005,4.882-1.533,9.938-1.533,15.114c0,2.119,0.11,4.212,0.284,6.286h-51.928c0.173-2.075,0.284-4.168,0.284-6.286
		C220.245,305.284,219.716,300.23,218.711,295.346z M346.506,363.961c-19.374,0-36.375-10.351-45.764-25.814h91.529
		C382.881,353.609,365.879,363.961,346.506,363.961z M483.063,359.547c-0.045,0-0.088,0-0.133,0c-7.488,0-14.314-2.778-19.23-7.828
		c-4.723-4.851-7.204-11.326-6.988-18.23c0.003-0.111,0.005-0.224,0.005-0.335v-11.413c0-0.111-0.002-0.224-0.005-0.335
		c-0.216-6.905,2.264-13.378,6.986-18.23c3.675-3.775,8.416-6.281,13.705-7.305c-1.983,22.98,0.551,44.295,7.56,63.677h-1.899
		V359.547z"/>
	<path style="fill:#231F20;" d="M68.154,146.912l0.535,0.268c1.537,0.768,3.168,1.132,4.777,1.132c3.925,0,7.704-2.167,9.579-5.917
		c2.643-5.285,0.501-11.712-4.786-14.355l-0.535-0.268c-5.285-2.644-11.712-0.502-14.355,4.786
		C60.726,137.842,62.868,144.269,68.154,146.912z"/>
</g>
</svg>